<?xml version="1.0"?><svg width="123.547" height="123.539" xmlns="http://www.w3.org/2000/svg">
 <g>
  <g id="svg_1">
   <path id="svg_4" fill="#231F20" d="m62.688,31.895c-3.055,0 -5.562,-2.508001 -5.562,-5.586c0,-3.101999 2.507999,-5.594 5.562,-5.594c3.102001,0 5.593998,2.492001 5.593998,5.594c-0.000999,3.077999 -2.492996,5.586 -5.593998,5.586zm45.140003,48.928997l-2.977005,-18.554996c-0.343994,-1.734001 -1.859001,-3.055 -3.664001,-3.055c-1.101997,0 -2.07,0.468998 -2.780998,1.218998l-13.717995,12.868004c-0.227005,0.195 -0.445007,0.413994 -0.641006,0.687996c-1.288994,1.758003 -0.921997,4.25 0.836006,5.562004c0.335999,0.25 0.702995,0.413994 1.07,0.561996l3.445,1.148003c-3.32,9.375 -11.43,16.507996 -21.390999,18.484001l0.022995,-60.914001c4.883003,-2.078003 8.258003,-6.914001 8.258003,-12.523001c0,-7.523001 -6.078003,-13.602 -13.602001,-13.602c-7.492001,0 -13.594002,6.078 -13.594002,13.602c0,5.608999 3.492001,10.444998 8.352001,12.523001l0.022999,61.007996c-10.18,-1.827995 -18.601997,-9.030998 -22,-18.577995l3.469002,-1.148003c0.367001,-0.148003 0.733997,-0.311996 1.077999,-0.561996c1.757999,-1.312004 2.147999,-3.805 0.827999,-5.562004c-0.195,-0.272995 -0.390999,-0.491997 -0.632999,-0.687996l-13.725,-12.867004c-0.679998,-0.75 -1.679998,-1.218998 -2.757999,-1.218998c-1.827999,0 -3.367001,1.32 -3.688,3.055l-2.976999,18.554996c-0.070002,0.289001 -0.094002,0.609001 -0.094002,0.93c0,2.195 1.781,3.977005 3.977001,3.977005c0.414,0 0.805,-0.047005 1.171999,-0.172005l3.227001,-1.046997c5.125,15.578003 19.796999,26.851997 37.101999,26.851997c17.305,0 31.985001,-11.275002 37.110001,-26.876999l3.219002,1.07c0.366997,0.125 0.757996,0.172005 1.171997,0.172005c2.203003,0 3.984001,-1.781006 3.984001,-3.977005c0,-0.319 -0.031998,-0.639999 -0.101997,-0.929001z"/>
  </g>
 </g>
</svg>