<?xml version="1.0" encoding="UTF-8" standalone="no"?>
<svg width="120px" height="118px" viewBox="0 0 120 118" version="1.1" xmlns="http://www.w3.org/2000/svg" xmlns:xlink="http://www.w3.org/1999/xlink" xmlns:sketch="http://www.bohemiancoding.com/sketch/ns">
    <title>Slice 1</title>
    <description>Created with Sketch (http://www.bohemiancoding.com/sketch)</description>
    <defs></defs>
    <g id="Page 1" fill="rgb(206,206,206)" fill-rule="evenodd">
        <g id="Group">
            <path d="M59.7002813,2.11056034 C35.6180377,2.11056399 28.7602583,6.05268859 28.7602583,6.05268859 C19.2161068,8.81468672 9.06784167,18.7445881 6.51547104,28.3511189 C6.51547104,28.3511189 2.27896476,37.300974 2.27896476,58.8088227 C2.27896364,85.6919901 6.91957643,90.9258402 6.91957643,90.9258402 C10.2784217,100.26493 20.7338382,110.101093 30.4129897,112.350883 C30.4129897,112.350883 35.3427366,115.507085 59.7002813,115.507085 C83.5639741,115.507085 88.9991965,112.309301 88.9991965,112.309301 C98.6230457,109.838631 109.231871,100.289736 112.15473,90.7860568 C112.15473,90.7860568 117.243255,82.3912346 117.243255,56.9467099 C117.243254,34.0002181 113.317016,28.2102929 113.317016,28.2102929 C110.337165,18.7349841 100.259687,8.58036632 90.635295,6.04617844 C90.635295,6.04617844 83.8392752,2.11056034 59.7002813,2.11056034 Z M59.7002813,2.11056034" id="Rectangle 1 copy 2" stroke="rgb(0,0,0)" stroke-width="2" fill="rgb(0,0,0)"></path>
            <path d="M59.7002806,5.14482759 C35.618037,5.14483124 29.1515485,7.68931733 29.1515485,7.68931733 C19.3912934,9.54743037 9.63818867,18.8906874 7.7404586,28.6637824 C7.7404586,28.6637824 4.97924846,35.4388626 4.97924846,56.9467113 C4.97924734,83.8298787 8.55916592,90.4055511 8.55916592,90.4055511 C11.0124909,100.031988 20.9119938,109.348554 30.7416588,110.833474 C30.7416588,110.833474 35.3427351,112.855172 59.7002798,112.855172 C83.5639726,112.855172 88.683897,110.804534 88.683897,110.804534 C98.4818813,109.164924 108.464325,100.039416 110.55498,90.3250054 C110.55498,90.3250054 114.054422,82.3912361 114.054422,56.9467113 C114.054421,34.0002195 111.546665,28.6695126 111.546665,28.6695126 C109.544551,18.9405838 100.036048,9.37628022 90.2440176,7.68502569 C90.2440176,7.68502569 83.8392746,5.14482759 59.7002806,5.14482759 Z M59.7002806,5.14482759" id="Rectangle 1 copy" fill="rgb(255,255,255)"></path>
        </g>
    </g>
</svg>