<?xml version="1.0" encoding="UTF-8" standalone="no"?>
<svg viewBox="0 0 208 208" version="1.1" xmlns="http://www.w3.org/2000/svg">
    <g id="Page 1" fill="#ffffff" fill-rule="evenodd">
        <path d="M104.497512,4 C62.6301042,4.00000628 38.444001,18.5339665 38.444001,18.5339665 C30.9613831,22.0473568 21.946023,30.9363219 18.633256,38.5151107 C18.633256,38.5151107 4,63.945724 4,104 C3.99999828,143.050202 18.7250951,169.456638 18.7250951,169.456638 C22.1329282,176.994132 30.9524718,186.020903 38.5452832,189.303126 C38.5452832,189.303126 64.5876912,204 104.497512,204 C144.189681,204 170.447166,189.281957 170.447166,189.281957 C177.987143,185.870229 187.143622,177.127183 190.491969,169.55256 C190.491969,169.55256 204,148.407187 204,104 C203.999998,69.3027092 189.675983,38.8125954 189.675983,38.8125954 C186.596178,31.1264082 178.003487,22.0828858 170.364915,18.8797053 C170.364915,18.8797053 142.232094,4 104.497512,4 Z M104.497512,4" id="Rectangle 3" stroke="#FFFFFF" stroke-width="8" fill="#fff"></path>
    </g>
</svg>