<?xml version="1.0" encoding="UTF-8" standalone="no"?>
<svg width="25px" height="20px" viewBox="0 0 40 35" version="1.1" xmlns="http://www.w3.org/2000/svg" xmlns:xlink="http://www.w3.org/1999/xlink" xmlns:sketch="http://www.bohemiancoding.com/sketch/ns">
  <path d="M34.2857552,2.92853737 C34.2857552,2.34817953 33.9286119,1.83478606 33.4152184,1.61157151 C32.8795035,1.38835696 32.2545027,1.49996424 31.8527165,1.92407189 L28.9509274,4.8035396 C25.8036022,1.83478606 21.5402042,0.0713911057 17.1428776,0.0713911057 C7.70090204,0.0713911057 0,7.77229314 0,17.2142687 C0,26.6562442 7.70090204,34.3571463 17.1428776,34.3571463 C25.2455658,34.3571463 32.120574,28.8437468 33.883969,20.9419517 C33.9286119,20.7187371 33.8616475,20.5178441 33.7277188,20.3392724 C33.59379,20.1607008 33.392897,20.0714149 33.1696824,20.0714149 L28.7277128,20.0714149 C28.4152124,20.0714149 28.147355,20.272308 28.0580692,20.5848084 C26.5625317,25.4062427 22.1875264,28.6428537 17.1428776,28.6428537 C10.8482272,28.6428537 5.71429253,23.508919 5.71429253,17.2142687 C5.71429253,10.9196183 10.8482272,5.78568363 17.1428776,5.78568363 C20.0669882,5.78568363 22.8348486,6.90175639 24.9330654,8.84372299 L21.8527046,11.9240838 C21.428597,12.32587 21.3169897,12.9508707 21.5402042,13.4642642 C21.7634188,13.9999791 22.2768123,14.3571224 22.8571701,14.3571224 L32.857182,14.3571224 C33.638433,14.3571224 34.2857552,13.7098002 34.2857552,12.9285493 C34.2857552,12.9285493 34.2857552,13.7098002 34.2857552,12.9285493 L34.2857552,2.92853737 L34.2857552,2.92853737 Z M34.2857552,2.92853737" id="circle" class="refresh_circle" fill="#367E0E" transform="translate(17.142878, 17.214269) rotate(-315.000000) translate(-17.142878, -17.214269)"></path>
</svg>