<?xml version="1.0" encoding="UTF-8" standalone="no"?>
<svg viewBox="0 0 248 245" version="1.1" xmlns="http://www.w3.org/2000/svg">
    <title>Slogo</title>
    <g id="Page 1" fill="#D8D8D8" fill-rule="evenodd">
        <g id="Group">
            <path d="M124.099502,0 C73.6492755,7.57016126e-06 41.69785,18.7112155 41.69785,18.7112155 C34.2316533,22.283332 25.2104964,31.2006886 21.8253537,38.7583081 C21.8253537,38.7583081 3,72.2345974 3,120.5 C2.99999793,167.555493 21.9227046,202.209867 21.9227046,202.209867 C25.3780191,209.72703 34.2233328,218.758537 41.7938274,222.109696 C41.7938274,222.109696 76.0081679,241 124.099502,241 C171.928566,241 206.406351,222.085391 206.406351,222.085391 C213.924907,218.625606 223.093561,209.859444 226.532981,202.314617 C226.532981,202.314617 244,174.01066 244,120.5 C243.999998,78.6897645 225.657319,39.0648725 225.657319,39.0648725 C222.543859,31.3959746 213.929332,22.3457805 206.312972,19.0839456 C206.312972,19.0839456 169.569674,0 124.099502,0 Z M124.099502,0" id="Rectangle 3" fill="#fff"></path>
            <g>
                <path d="M116,180.5 C123.179702,180.5 129,174.679702 129,167.5 C129,160.320298 123.179702,154.5 116,154.5 C108.820298,154.5 103,160.320298 103,167.5 C103,174.679702 108.820298,180.5 116,180.5 Z M116,180.5" id="Oval 1" fill="#000000"></path>
                <path d="M160,180.5 C167.179702,180.5 173,174.679702 173,167.5 C173,160.320298 167.179702,154.5 160,154.5 C152.820298,154.5 147,160.320298 147,167.5 C147,174.679702 152.820298,180.5 160,180.5 Z M160,180.5" id="Oval 1 copy" fill="#000000"></path>
                <path d="M106.8831,66.8997989 C112.328748,59.3950527 123.653324,58.3379998 132.177249,64.538805 C134.925496,66.5380421 137.04707,69.0476559 138.47787,71.782242 C139.905898,69.0461842 142.024832,66.5365992 144.771096,64.538805 C153.295021,58.3379998 164.63463,59.415771 170.098824,66.9460745 C174.859066,73.5062494 173.589858,82.7993255 167.54812,89.1846441 L138.487654,119.5 L108.313775,87.9916665 C103.291244,81.6264478 102.419144,73.0516559 106.8831,66.8997989 Z M106.8831,66.8997989" id="Oval 3" fill="#FF0000"></path>
                <path d="M66.7793908,90.6109436 L88.0792576,144.817247 C88.9480861,147.040774 91.0825247,148.502161 93.4581218,148.499998 L183.704091,148.417814 C186.115759,148.415618 188.272008,146.906197 189.111448,144.632548 L210.63739,86.3288861 C211.74729,83.3226877 210.223745,79.9808405 207.234457,78.8646616 C204.245168,77.7484827 200.922119,79.2806463 199.812219,82.2868447 L179.530969,136.805238 L97.4484137,136.805238 L76.1586041,82.5578907 C75.2873244,80.3280913 73.1436664,78.8654011 70.7613859,78.8751866 L40.7500468,78.998462 C37.5613867,79.0115599 34.987025,81.6217202 35.0000492,84.8284184 C35.0130734,88.0351165 37.6085513,90.6240411 40.7972114,90.6109433 L66.7793908,90.6109436 Z M66.7793908,90.6109436" id="Path 1" fill="#000000"></path>
            </g>
        </g>
    </g>
</svg>