<?xml version="1.0" encoding="UTF-8" standalone="no"?>
<!-- Created with Inkscape (http://www.inkscape.org/) -->

<svg
   xmlns:dc="http://purl.org/dc/elements/1.1/"
   xmlns:cc="http://creativecommons.org/ns#"
   xmlns:rdf="http://www.w3.org/1999/02/22-rdf-syntax-ns#"
   xmlns:svg="http://www.w3.org/2000/svg"
   xmlns="http://www.w3.org/2000/svg"
   version="1.1"
   width="694.95911"
   height="55.15464"
   id="svg3004"
   xml:space="preserve"><metadata
     id="metadata3010"><rdf:RDF><cc:Work
         rdf:about=""><dc:format>image/svg+xml</dc:format><dc:type
           rdf:resource="http://purl.org/dc/dcmitype/StillImage" /><dc:title></dc:title></cc:Work></rdf:RDF></metadata><defs
     id="defs3008"><clipPath
       id="clipPath3022"><path
         d="m 730.059,5890.09 869.611,0 0,-334.21 -869.611,0 0,334.21 z"
         id="path3024" /></clipPath><clipPath
       id="clipPath3032"><path
         d="m 0,6188.61 664.707,0 0,228.578 -664.707,0 0,-228.578 z"
         id="path3034" /></clipPath><clipPath
       id="clipPath3046"><path
         d="m 1127.03,6738.16 4620.24,0 0,-488.08 -4620.24,0 0,488.08 z"
         id="path3048" /></clipPath><clipPath
       id="clipPath3068"><path
         d="m 5266.58,6905.83 675.63,0 0,-228.58 -675.63,0 0,228.58 z"
         id="path3070" /></clipPath></defs><g
     transform="matrix(1.25,0,0,-1.25,-33.859875,840.28464)"
     id="g3012"><path
       d="m 73.0059,555.588 86.9609,0 0,33.4219 -86.9609,0 0,-33.4219 z"
       id="path3016"
       style="fill:#ffffff;fill-opacity:1;fill-rule:nonzero;stroke:none" /><g
       transform="scale(0.1,0.1)"
       id="g3018"><g
         clip-path="url(#clipPath3022)"
         id="g3020"><g
           transform="scale(10,10)"
           id="g3026" /></g></g><g
       id="g3983"><g
         transform="scale(0.1,0.1)"
         id="g3028"><g
           transform="translate(104,64)"
           clip-path="url(#clipPath3032)"
           id="g3030"><g
             transform="scale(10,10)"
             id="g3036"><text
               transform="matrix(1,0,0,-1,16.6879,625.619)"
               id="text3038"><tspan
                 x="0 8.118 10.332 17.226 24.75"
                 y="0"
                 id="tspan3040"
                 style="font-size:18px;font-variant:normal;font-weight:bold;writing-mode:lr-tb;fill:#303030;fill-opacity:1;fill-rule:nonzero;stroke:none;font-family:Paul Maul;-inkscape-font-specification:PaulMaul-Bold">Slogo</tspan></text>
</g></g></g><g
         transform="scale(0.1,0.1)"
         id="g3042"><g
           clip-path="url(#clipPath3046)"
           id="g3044"><g
             transform="scale(10,10)"
             id="g3050"><text
               transform="matrix(1,0,0,-1,146.426,640.716)"
               id="text3052"><tspan
                 x="0 20.128 37.807999 56.745998 65.416 84.931999 101.218 114.75 133.688 146.23399 154.90401 172.55 191.48801 209.98399 227.834 244.12 257.65201 275.80801 288.32001 306.81601 325.754 340 358.42801 374.71399 384.16599"
                 y="0"
                 id="tspan3054"
                 style="font-size:34px;font-variant:normal;font-weight:bold;writing-mode:lr-tb;fill:#000000;fill-opacity:1;fill-rule:nonzero;stroke:none;font-family:Amaranth;-inkscape-font-specification:Amaranth-Bold">Von Beruf Endverbraucher.</tspan></text>
</g></g></g><path
         d="m 108.571,665.741 c -0.148,0.893 -0.532,1.715 -1.145,2.47 -1.144,1.401 -2.688,2.099 -4.631,2.099 -1.952,0 -3.6282,-0.698 -5.0294,-2.099 -0.5844,-0.575 -1.0402,-1.202 -1.3633,-1.871 -0.3277,0.669 -0.7789,1.296 -1.3632,1.871 -1.4012,1.401 -3.0774,2.099 -5.025,2.099 -1.952,0 -3.4957,-0.698 -4.6309,-2.099 -0.6172,-0.755 -1.002,-1.577 -1.1492,-2.47 -0.043,-0.256 -0.0664,-0.518 -0.0711,-0.784 -0.0051,-0.166 0,-0.337 0.0141,-0.512 0.0093,-0.172 0.0285,-0.347 0.0617,-0.527 0.014,-0.086 0.0285,-0.176 0.0472,-0.276 0.0907,-0.437 0.2141,-0.855 0.3801,-1.254 0.3278,-0.793 0.8172,-1.501 1.4774,-2.133 l 10.2589,-10.843 10.2687,10.843 c 0.974,0.946 1.591,2.071 1.852,3.387 0.015,0.095 0.034,0.185 0.052,0.276 0.024,0.17 0.043,0.341 0.057,0.507 0.034,0.452 0.01,0.894 -0.061,1.316"
         id="path3056"
         style="fill:#ff2300;fill-opacity:1;fill-rule:nonzero;stroke:none" /><path
         d="m 121.773,661.954 c 0,0.425 -0.155,0.792 -0.465,1.094 -0.303,0.303 -0.662,0.45 -1.087,0.45 -0.416,0 -0.784,-0.147 -1.086,-0.45 -0.196,-0.195 -0.327,-0.416 -0.4,-0.669 l -7.213,-18.485 c -0.188,-0.319 -0.466,-0.556 -0.817,-0.711 -0.204,-0.09 -0.416,-0.138 -0.621,-0.138 -0.041,0 -0.089,0 -0.13,-0.009 l -26.327,0 c -0.0411,0.009 -0.0899,0.009 -0.1309,0.009 -0.2039,0 -0.4164,0.048 -0.6207,0.138 -0.3512,0.155 -0.6125,0.392 -0.7758,0.727 l -7.2945,18.681 c -0.0406,0.106 -0.0817,0.197 -0.1387,0.286 -0.0574,0.09 -0.1309,0.171 -0.2125,0.253 -0.0652,0.066 -0.1305,0.123 -0.2043,0.172 -0.2531,0.18 -0.5308,0.269 -0.8496,0.278 l -11.3621,0 c -0.4246,0 -0.7922,-0.148 -1.0945,-0.45 -0.3024,-0.302 -0.4493,-0.669 -0.4493,-1.094 l 0,-0.008 c 0,-0.425 0.1469,-0.785 0.4493,-1.087 0.3023,-0.302 0.6699,-0.457 1.0945,-0.457 l 9.2629,0 c 0.3187,-0.008 0.5965,-0.098 0.8496,-0.278 0.1715,-0.106 0.3105,-0.253 0.4168,-0.425 0.0078,-0.024 0.0242,-0.04 0.0406,-0.065 0.041,-0.073 0.0734,-0.147 0.0981,-0.221 l 7.2453,-18.591 c 0.1554,-0.392 0.4328,-0.67 0.825,-0.841 0.2043,-0.09 0.4168,-0.139 0.6211,-0.139 0.0406,0 0.0894,0 0.1304,0.008 l 30.5253,0 c 0.041,-0.008 0.09,-0.008 0.131,-0.008 0.204,0 0.416,0.049 0.62,0.139 0.392,0.171 0.67,0.449 0.825,0.841 l 8.128,20.797 c 0.008,0.081 0.016,0.163 0.016,0.253"
         id="path3058"
         style="fill:#000000;fill-opacity:1;fill-rule:nonzero;stroke:none" /><path
         d="m 102.888,637.114 c -0.825,-0.188 -1.552,-0.588 -2.181,-1.217 -0.8902,-0.89 -1.3312,-1.968 -1.3312,-3.226 0,-1.266 0.441,-2.345 1.3312,-3.227 0.155,-0.155 0.311,-0.294 0.474,-0.416 0.792,-0.613 1.715,-0.924 2.761,-0.924 1.037,0 1.96,0.311 2.753,0.924 0.163,0.122 0.318,0.261 0.473,0.416 0.891,0.882 1.34,1.961 1.34,3.227 0,1.258 -0.449,2.336 -1.34,3.226 -0.629,0.629 -1.356,1.029 -2.173,1.217 -0.334,0.074 -0.686,0.115 -1.053,0.115 -0.368,0 -0.719,-0.041 -1.054,-0.115"
         id="path3060"
         style="fill:#000000;fill-opacity:1;fill-rule:nonzero;stroke:none" /><path
         d="m 93.2656,632.671 c 0,1.258 -0.4492,2.336 -1.3394,3.226 -0.6293,0.629 -1.3481,1.029 -2.1649,1.217 -0.3347,0.074 -0.6941,0.115 -1.0617,0.115 -0.3676,0 -0.7191,-0.041 -1.0457,-0.115 -0.8168,-0.188 -1.5437,-0.588 -2.1809,-1.217 -0.8902,-0.89 -1.3312,-1.968 -1.3312,-3.226 0,-1.266 0.441,-2.345 1.3312,-3.227 0.1551,-0.155 0.3106,-0.294 0.4739,-0.416 0.7922,-0.613 1.7152,-0.924 2.7527,-0.924 1.0535,0 1.9684,0.311 2.7609,0.924 0.1551,0.122 0.3102,0.261 0.4657,0.416 0.8902,0.882 1.3394,1.961 1.3394,3.227"
         id="path3062"
         style="fill:#000000;fill-opacity:1;fill-rule:nonzero;stroke:none" /><g
         transform="matrix(0.1,0,0,0.1,4.2043093,-13.320718)"
         id="g3064"><g
           clip-path="url(#clipPath3068)"
           id="g3066"><g
             transform="scale(10,10)"
             id="g3072"><text
               transform="matrix(1,0,0,-1,541.348,674.483)"
               id="text3074"><tspan
                 x="0 8.118 10.332 17.226 24.75 31.122"
                 y="0"
                 id="tspan3076"
                 style="font-size:18px;font-variant:normal;font-weight:bold;writing-mode:lr-tb;fill:#303030;fill-opacity:1;fill-rule:nonzero;stroke:none;font-family:Paul Maul;-inkscape-font-specification:PaulMaul-Bold">Slogan</tspan></text>
</g></g></g><path
         d="m 58.621893,650.51212 c 0.733497,-0.4643 1.388956,-1.04171 2.083433,-1.56258 -0.312391,-0.97445 -0.6361,-1.78108 -0.868097,-2.43067 M 47.717734,643.9185 c 3.528649,2.52039 11.801141,4.58934 13.302648,5.17326"
         id="path3084"
         style="fill:none;stroke:#000000;stroke-width:0.80000001px;stroke-linecap:butt;stroke-linejoin:miter;stroke-opacity:1" /><path
         d="m 544.29335,649.62264 c -0.7335,0.4643 -1.38896,1.04171 -2.08344,1.56258 0.3124,0.97445 0.6361,1.78108 0.8681,2.43067 m 12.1195,2.60037 c -3.52865,-2.52039 -11.80115,-4.58934 -13.30265,-5.17326"
         id="path3151"
         style="fill:none;stroke:#000000;stroke-width:0.80000001px;stroke-linecap:butt;stroke-linejoin:miter;stroke-opacity:1" /></g></g></svg>