<?xml version="1.0" encoding="UTF-8" standalone="no"?>
<svg viewBox="0 0 315 215" version="1.1" xmlns="http://www.w3.org/2000/svg">
    <g id="Page 1" fill="rgb(206,206,206)" fill-rule="evenodd">
        <g id="Group">
            <path d="M141.52521,208 C154.090849,208 164.277311,197.829078 164.277311,185.282609 C164.277311,172.736139 154.090849,162.565217 141.52521,162.565217 C128.959571,162.565217 118.773109,172.736139 118.773109,185.282609 C118.773109,197.829078 128.959571,208 141.52521,208 Z M141.52521,208" id="Oval 1" fill="rgb(0,0,0)"></path>
            <path d="M216.567227,208 C229.132866,208 239.319328,197.829078 239.319328,185.282609 C239.319328,172.736139 229.132866,162.565217 216.567227,162.565217 C204.001588,162.565217 193.815126,172.736139 193.815126,185.282609 C193.815126,197.829078 204.001588,208 216.567227,208 Z M216.567227,208" id="Oval 1 copy" fill="rgb(0,0,0)"></path>
            <path d="M125.70771,11.6552265 C135.105536,-1.27977183 154.648919,-3.10168258 169.359079,7.58587473 C174.101867,11.0317113 177.763173,15.3572207 180.232375,20.0704869 C182.696793,15.354684 186.353544,11.0292243 191.092908,7.58587473 C205.803069,-3.10168258 225.372396,-1.2440623 234.802227,11.734986 C243.017213,23.0419441 240.826878,39.0592645 230.400351,50.0648446 L180.249259,102.315656 L128.176697,48.0086573 C119.509065,37.037721 118.00404,22.2584179 125.70771,11.6552265 Z M125.70771,11.6552265" id="Oval 3" fill="rgb(235,36,35)"></path>
            <path d="M56.2107177,52.139969 L93.102368,145.497884 C94.6071904,149.327397 98.3040661,151.844302 102.418632,151.840576 L258.725841,151.699033 C262.902881,151.695251 266.637533,149.09562 268.091455,145.179782 L305.374669,44.7651079 C307.297031,39.5876211 304.658231,33.8320566 299.480744,31.9096946 C294.303257,29.9873327 288.547693,32.6261327 286.625331,37.8036195 L251.497938,131.699038 L109.32987,131.699038 L72.4556389,38.2704339 C70.9465709,34.4301163 67.233727,31.9109683 63.1075858,31.9278216 L11.1275506,32.1401352 C5.60474918,32.1626932 1.1459209,36.6580952 1.1684789,42.1808966 C1.1910369,47.7036981 5.68643893,52.1625263 11.2092404,52.1399683 L56.2107177,52.139969 Z M56.2107177,52.139969" id="Path 1" fill="rgb(0,0,0)"></path>
        </g>
    </g>
</svg>